<svg fill="#773F9B" xmlns="http://www.w3.org/2000/svg" xmlns:xlink="http://www.w3.org/1999/xlink" viewBox="0 0 60 60" version="1.1" x="0px" y="0px"><title>5 -Broken Code- (Solid)</title><desc>Created with Sketch.</desc><g stroke="none" stroke-width="1" fill="none" fill-rule="evenodd"><g transform="translate(-600.000000, -340.000000)" fill="#773F9B"><g transform="translate(600.000000, 340.000000)"><path d="M21,0 C21.552,0 22,0.448 22,1 L22,59 C22,59.552 21.552,60 21,60 L1,60 C0.448,60 0,59.552 0,59 L0,1 C0,0.448 0.448,0 1,0 L21,0 Z"></path><path d="M59,0 L39,0 C38.448,0 38,0.448 38,1 L38,59 C38,59.552 38.448,60 39,60 L59,60 C59.553,60 60,59.552 60,59 L60,1 C60,0.448 59.553,0 59,0"></path><path d="M35.9648,8.6997 C35.8898,8.4607 35.7268,8.2657 35.5188,8.1427 L25.5728,1.1807 C25.1208,0.8647 24.4988,0.9737 24.1808,1.4267 C23.8638,1.8787 23.9738,2.5027 24.4268,2.8197 L33.2658,9.0067 L24.4268,15.1797 C24.1598,15.3667 23.9998,15.6727 23.9998,15.9997 C23.9998,16.3257 24.1588,16.6317 24.4268,16.8197 L33.2658,23.0067 L24.4268,29.1797 C24.1598,29.3667 23.9998,29.6727 23.9998,29.9997 C23.9998,30.3257 24.1588,30.6317 24.4268,30.8197 L33.2658,37.0067 L24.4268,43.1797 C24.1598,43.3667 23.9998,43.6727 23.9998,43.9997 C23.9998,44.3257 24.1588,44.6317 24.4268,44.8197 L33.2658,51.0067 L24.4268,57.1797 C23.9748,57.4967 23.8638,58.1197 24.1798,58.5727 C24.3748,58.8507 24.6848,58.9997 25.0008,58.9997 C25.1988,58.9997 25.3988,58.9417 25.5728,58.8197 L35.5948,51.8197 C35.9528,51.5697 36.0958,51.1167 35.9648,50.6997 C35.8898,50.4607 35.7268,50.2657 35.5188,50.1427 L26.7448,44.0007 L35.5948,37.8197 C35.9528,37.5697 36.0958,37.1167 35.9648,36.6997 C35.8898,36.4607 35.7268,36.2657 35.5188,36.1427 L26.7448,30.0007 L35.5948,23.8197 C35.9528,23.5697 36.0958,23.1167 35.9648,22.6997 C35.8898,22.4607 35.7268,22.2657 35.5188,22.1427 L26.7448,16.0007 L35.5948,9.8197 C35.9528,9.5697 36.0958,9.1167 35.9648,8.6997"></path></g></g></g></svg>